PathFileType	4	(X/Y/Z)	Walk4.trc
DataRate	CameraRate	NumFrames	NumMarkers	Units	OrigDataRate	OrigDataStartFrame	OrigNumFrames
200.000000	200.000000	8	58	mm	200.000000	332	454
Frame#	Times		LFHD		RFHD		RBHD		C7		CLAV		STRN		RBack		RASI		LPSI		RACR1		RUA1		RElbow		RFA1		RWRR		RCAR		LACR1		LUA1		LElbow		LFA1		LWRR		LWRU		LCAR		RTH1		RTH3		RTH2		RTH4		RLFC		RTB1		RTB3		RTB2		RTB4		RLMAL		RMMAL		RCAL		RMT1		RMT5		RToe		LTH1		LTH3		LTH2		LTH4		LLFC		LTB1		LTB3		LTB2		LTB4		LLMAL		LMT5		LToe		RWRU		LBHD		T10		LMMAL		RPSI		LASI		LElbowM		LMT1		LCAL
			X1	Y1	Z1	X2	Y2	Z2	X3	Y3	Z3	X4	Y4	Z4	X5	Y5	Z5	X6	Y6	Z6	X7	Y7	Z7	X8	Y8	Z8	X9	Y9	Z9	X10	Y10	Z10	X11	Y11	Z11	X12	Y12	Z12	X13	Y13	Z13	X14	Y14	Z14	X15	Y15	Z15	X16	Y16	Z16	X17	Y17	Z17	X18	Y18	Z18	X19	Y19	Z19	X20	Y20	Z20	X21	Y21	Z21	X22	Y22	Z22	X23	Y23	Z23	X24	Y24	Z24	X25	Y25	Z25	X26	Y26	Z26	X27	Y27	Z27	X28	Y28	Z28	X29	Y29	Z29	X30	Y30	Z30	X31	Y31	Z31	X32	Y32	Z32	X33	Y33	Z33	X34	Y34	Z34	X35	Y35	Z35	X36	Y36	Z36	X37	Y37	Z37	X38	Y38	Z38	X39	Y39	Z39	X40	Y40	Z40	X41	Y41	Z41	X42	Y42	Z42	X43	Y43	Z43	X44	Y44	Z44	X45	Y45	Z45	X46	Y46	Z46	X47	Y47	Z47	X48	Y48	Z48	X49	Y49	Z49	X50	Y50	Z50	X51	Y51	Z51	X52	Y52	Z52	X53	Y53	Z53	X54	Y54	Z54	X55	Y55	Z55	X56	Y56	Z56	X57	Y57	Z57	X58	Y58	Z58

332	1.66	455.45	1586.3	-31.738	469.52	1579.7	61.66	319.81	1530.7	98.934	274.74	1402.5	27.919	415.73	1327.3	13.224	476.72	1223.9	15.959	231.34	1305.4	136.67	457.67	965.81	178.1	218.49	944.62	-21.993	357.21	1363.4	171.56	356.25	1187.1	274.81	316.2	1065.5	311.2	368.76	927.18	332.29	483.42	865.43	299.59	506.12	821.75	353.81	341.16	1365.9	-138.71	304.76	1184.4	-229.16	252.68	1063	-246.41	232.31	930.54	-267.38	290.85	807.91	-244.67	231.36	814.03	-283.33	283.28	760.95	-287.81	355.73	730.63	243.07	298.13	576.45	191.88	378.63	642.87	194.58	324.54	653.09	215.03	264.29	494.3	169.16	261.51	334.86	93.178	206.76	171.01	86.006	210.41	258.87	144.42	234.52	251.78	86.484	139.65	70.207	104	157.91	75.366	22.653	73.861	44.76	66.786	252.81	33.757	50.81	217.78	26.08	125.99	320.47	26.009	85.451	404.95	737.31	-189	477.2	588.74	-142.4	491.75	693.8	-153.05	440.61	664.48	-161.57	523.99	483.22	-108.74	617.55	366.49	-37.862	653.99	198.11	-49.738	614.38	279.46	-99.849	634.98	281.55	-42.203	648.33	79.449	-79.788	746.69	63.292	-87.334	827.72	109	-44.717	430.16	834.6	338.77	303.34	1532.9	-42.201	208.34	1135	26.89	661.8	87.971	4.0706	216.6	953.84	66.385	465.27	949.31	-114.62	234.07	1038.9	-168.69	768.6	86.39	-15.469	599.35	28.39	-42.529
333	1.665	460.97	1585.4	-32.067	474.94	1578.8	61.336	325.17	1529.8	98.427	280.21	1401.6	27.41	421.26	1326.4	12.761	482.25	1223	15.578	236.8	1304.6	136.2	463.01	965.16	178.16	224.19	943.71	-22.466	362.66	1362.5	171.1	361.78	1186.3	274.4	321.94	1064.7	310.8	374.56	926.43	332	489.19	864.63	299.27	511.94	821.05	353.53	346.67	1365	-139.21	309.69	1183.6	-229.63	257.26	1062.2	-246.69	236.27	929.98	-267.72	294.64	807.09	-245.62	234.8	813.49	-283.76	286.5	760.23	-288.78	360.8	729.96	242.86	302.34	576.09	191.66	383.17	642.13	194.25	329.16	652.55	214.83	267.99	494.13	168.96	264.01	334.6	93.047	207.91	171.19	85.956	212.28	259.1	144.34	236.34	251.73	86.401	140.01	70.956	104.08	158.26	75.954	22.682	73.999	45.936	66.872	252.87	33.792	50.791	217.83	26.149	125.93	320.52	25.846	85.608	410.72	736.6	-189.53	482.92	587.91	-143.02	497.46	693.05	-153.27	446.36	663.68	-162.31	529.74	482.43	-109.07	624.06	366.66	-37.56	662.72	198.72	-49.423	622.42	279.65	-99.705	642.59	281.93	-41.906	658.84	79.885	-79.61	757.5	64.847	-86.506	837.76	111.57	-43.142	435.96	833.83	338.52	308.83	1532.2	-42.717	213.92	1134.2	26.412	671.62	88.612	4.3115	222.24	952.93	65.879	471.17	948.5	-114.73	239.06	1038.1	-168.9	778.62	88.255	-14.464	610.19	28.145	-42.708
334	1.67	466.5	1584.6	-32.407	480.35	1577.9	61.002	330.52	1529	97.896	285.68	1400.8	26.869	426.8	1325.6	12.275	487.8	1222.1	15.18	242.25	1303.7	135.69	468.38	964.53	178.22	229.93	942.81	-22.971	368.1	1361.7	170.63	367.26	1185.5	273.96	327.63	1063.8	310.36	380.28	925.66	331.66	494.87	863.8	298.91	517.66	820.31	353.23	352.19	1364.1	-139.74	314.7	1182.7	-230.13	261.94	1061.5	-247	240.34	929.4	-268.07	298.52	806.25	-246.54	238.35	812.93	-284.19	289.84	759.49	-289.71	365.92	729.3	242.64	306.62	575.73	191.43	387.78	641.41	193.93	333.84	652.03	214.62	271.79	493.97	168.76	266.59	334.33	92.898	209.09	171.39	85.918	214.24	259.32	144.27	238.21	251.7	86.315	140.4	71.746	104.19	158.6	76.582	22.751	74.146	47.174	67.023	252.91	33.834	50.775	217.9	26.216	125.88	320.57	25.686	85.752	416.52	735.89	-190.04	488.74	587.16	-143.51	503.23	692.36	-153.49	452.18	662.91	-162.96	535.6	481.69	-109.33	630.4	366.68	-37.252	670.96	199.15	-49.121	630.12	279.73	-99.553	649.86	282.15	-41.612	668.59	80.188	-79.45	767.45	66.15	-85.775	847.06	113.7	-41.708	441.66	833.04	338.25	314.33	1531.5	-43.261	219.52	1133.3	25.904	680.73	89.066	4.5259	227.92	952.03	65.345	477.12	947.72	-114.82	244.1	1037.3	-169.14	787.89	89.752	-13.567	620.19	27.873	-42.887
335	1.675	472.04	1583.8	-32.759	485.77	1577	60.658	335.87	1528.2	97.342	291.15	1400	26.295	432.36	1324.8	11.766	493.35	1221.2	14.765	247.71	1302.9	135.14	473.78	963.94	178.27	235.71	941.93	-23.505	373.54	1360.9	170.14	372.71	1184.7	273.51	333.26	1063	309.87	385.92	924.89	331.28	500.47	862.93	298.53	523.28	819.53	352.91	357.72	1363.2	-140.29	319.81	1181.9	-230.64	266.71	1060.7	-247.33	244.53	928.8	-268.43	302.5	805.41	-247.43	242.03	812.35	-284.63	293.3	758.74	-290.61	371.08	728.67	242.41	310.99	575.39	191.21	392.46	640.69	193.62	338.59	651.53	214.39	275.71	493.81	168.56	269.26	334.06	92.73	210.32	171.61	85.893	216.31	259.56	144.19	240.15	251.66	86.225	140.82	72.577	104.35	158.94	77.251	22.86	74.303	48.479	67.239	252.95	33.884	50.764	217.99	26.282	125.84	320.61	25.53	85.883	422.36	735.19	-190.52	494.67	586.48	-143.89	509.07	691.72	-153.7	458.07	662.19	-163.52	541.55	481.02	-109.51	636.61	366.57	-36.945	678.68	199.38	-48.83	637.46	279.68	-99.393	656.81	282.2	-41.324	677.56	80.337	-79.299	776.55	67.16	-85.14	855.64	115.33	-40.425	447.26	832.23	337.95	319.84	1530.8	-43.832	225.15	1132.4	25.367	689.11	89.313	4.7188	233.64	951.14	64.785	483.12	946.96	-114.91	249.21	1036.5	-169.42	796.42	90.844	-12.781	629.33	27.561	-43.054
336	1.68	477.59	1583	-33.123	491.2	1576.1	60.304	341.21	1527.4	96.767	296.63	1399.1	25.689	437.92	1324	11.233	498.92	1220.4	14.33	253.18	1302.1	134.56	479.21	963.36	178.32	241.54	941.08	-24.066	378.97	1360.1	169.62	378.11	1183.9	273.02	338.84	1062.2	309.33	391.48	924.11	330.85	505.97	862.03	298.12	528.79	818.72	352.57	363.27	1362.3	-140.88	325	1181	-231.17	271.59	1060	-247.67	248.83	928.19	-268.81	306.57	804.56	-248.29	245.84	811.76	-285.08	296.89	757.98	-291.47	376.28	728.06	242.18	315.44	575.05	190.98	397.21	639.99	193.34	343.4	651.04	214.17	279.76	493.64	168.36	272.02	333.77	92.543	211.61	171.85	85.879	218.48	259.8	144.12	242.16	251.64	86.131	141.27	73.45	104.55	159.28	77.962	23.01	74.472	49.852	67.521	252.98	33.944	50.759	218.1	26.348	125.81	320.66	25.378	86	428.26	734.5	-190.96	500.69	585.87	-144.14	514.99	691.15	-153.9	464.04	661.51	-163.98	547.59	480.4	-109.63	642.68	366.31	-36.642	685.92	199.41	-48.548	644.45	279.5	-99.226	663.45	282.08	-41.043	685.76	80.313	-79.15	784.8	67.837	-84.596	863.49	116.43	-39.297	452.77	831.4	337.62	325.36	1530.1	-44.431	230.82	1131.6	24.801	696.79	89.339	4.8964	239.4	950.27	64.202	489.17	946.23	-115.01	254.38	1035.7	-169.73	804.23	91.506	-12.104	637.62	27.202	-43.197
337	1.685	483.15	1582.3	-33.499	496.62	1575.3	59.94	346.55	1526.7	96.171	302.12	1398.3	25.051	443.5	1323.2	10.677	504.51	1219.6	13.876	258.64	1301.2	133.93	484.68	962.81	178.35	247.41	940.26	-24.65	384.4	1359.4	169.08	383.49	1183.2	272.52	344.37	1061.5	308.75	396.95	923.33	330.38	511.39	861.1	297.69	534.19	817.88	352.21	368.83	1361.4	-141.49	330.27	1180.1	-231.71	276.57	1059.2	-248.05	253.26	927.57	-269.21	310.73	803.7	-249.12	249.77	811.16	-285.53	300.6	757.21	-292.3	381.52	727.47	241.94	319.97	574.71	190.75	402.04	639.31	193.08	348.28	650.56	213.94	283.92	493.48	168.15	274.89	333.48	92.338	212.94	172.11	85.876	220.76	260.05	144.07	244.24	251.62	86.032	141.75	74.369	104.79	159.62	78.716	23.2	74.656	51.299	67.867	253.01	34.015	50.761	218.24	26.415	125.78	320.71	25.232	86.104	434.22	733.83	-191.37	506.8	585.34	-144.28	520.98	690.63	-154.08	470.09	660.89	-164.34	553.71	479.83	-109.69	648.63	365.9	-36.349	692.67	199.22	-48.272	651.1	279.18	-99.049	669.8	281.77	-40.768	693.18	80.108	-78.997	792.21	68.153	-84.136	870.67	116.95	-38.324	458.17	830.57	337.27	330.88	1529.5	-45.057	236.52	1130.7	24.207	703.77	89.137	5.0651	245.21	949.42	63.599	495.25	945.54	-115.12	259.61	1034.9	-170.06	811.32	91.716	-11.529	645.07	26.793	-43.306
338	1.69	488.73	1581.5	-33.887	502.05	1574.4	59.565	351.89	1525.9	95.552	307.61	1397.5	24.381	449.1	1322.5	10.097	510.11	1218.8	13.401	264.11	1300.4	133.27	490.19	962.28	178.36	253.33	939.47	-25.253	389.82	1358.6	168.51	388.83	1182.4	271.98	349.85	1060.7	308.13	402.35	922.55	329.85	516.72	860.16	297.23	539.48	817.01	351.83	374.41	1360.5	-142.13	335.63	1179.3	-232.28	281.65	1058.4	-248.44	257.8	926.93	-269.61	315	802.84	-249.92	253.84	810.54	-285.98	304.45	756.43	-293.1	386.8	726.9	241.69	324.59	574.38	190.53	406.94	638.64	192.85	353.23	650.1	213.7	288.22	493.3	167.94	277.86	333.17	92.117	214.34	172.39	85.882	223.15	260.3	144.01	246.39	251.6	85.927	142.28	75.333	105.06	159.96	79.513	23.428	74.861	52.822	68.276	253.04	34.098	50.769	218.4	26.486	125.77	320.77	25.093	86.195	440.25	733.18	-191.73	512.98	584.87	-144.33	527.05	690.16	-154.24	476.21	660.32	-164.61	559.9	479.31	-109.69	654.47	365.35	-36.066	698.96	198.82	-47.996	657.41	278.72	-98.861	675.86	281.29	-40.499	699.87	79.718	-78.832	798.82	68.084	-83.749	877.18	116.88	-37.499	463.47	829.73	336.88	336.42	1528.9	-45.711	242.25	1129.9	23.587	710.08	88.706	5.2317	251.06	948.59	62.978	501.38	944.88	-115.25	264.89	1034.1	-170.43	817.74	91.466	-11.049	651.68	26.34	-43.372
339	1.695	494.31	1580.8	-34.286	507.48	1573.6	59.18	357.22	1525.3	94.911	313.11	1396.8	23.679	454.7	1321.7	9.4945	515.74	1218.1	12.906	269.59	1299.7	132.56	495.75	961.77	178.34	259.3	938.71	-25.871	395.24	1357.9	167.92	394.14	1181.7	271.42	355.27	1059.9	307.47	407.66	921.77	329.27	521.96	859.19	296.75	544.65	816.11	351.42	379.99	1359.6	-142.79	341.08	1178.4	-232.85	286.83	1057.6	-248.86	262.47	926.28	-270.04	319.36	801.98	-250.69	258.04	809.92	-286.45	308.43	755.64	-293.86	392.12	726.35	241.45	329.3	574.05	190.31	411.93	638	192.64	358.25	649.65	213.46	292.65	493.12	167.71	280.95	332.84	91.88	215.8	172.69	85.896	225.66	260.56	143.97	248.62	251.59	85.817	142.84	76.347	105.37	160.32	80.359	23.694	75.09	54.425	68.745	253.08	34.195	50.785	218.59	26.564	125.77	320.83	24.961	86.274	446.34	732.57	-192.05	519.23	584.45	-144.3	533.18	689.73	-154.38	482.39	659.81	-164.79	566.15	478.83	-109.65	660.21	364.67	-35.793	704.81	198.22	-47.717	663.41	278.11	-98.658	681.65	280.64	-40.233	705.83	79.148	-78.649	804.65	67.619	-83.424	883.07	116.19	-36.812	468.67	828.89	336.47	341.97	1528.3	-46.392	248.01	1129	22.942	715.75	88.054	5.4027	256.96	947.79	62.345	507.55	944.27	-115.41	270.24	1033.2	-170.83	823.49	90.754	-10.651	657.49	25.854	-43.391
